#!OML:ASF H:\LiuWeirdWalks\Patient Classification 1\Patient 1\Session 1\male.ASF
:FULLY-SPECIFIED
:DEGREES
261
root 1.57644 16.546 -12.3954 -1.10766 -0.0523496 -7.69516
lowerback 19.0265 1.49679 1.7278
upperback 0.494372 2.6945 3.18889
thorax -10.2424 1.28267 1.76987
lowerneck -19.6771 0.0545142 3.97769
upperneck 19.1713 -0.430702 -2.98198
head 9.26694 -0.246436 -1.74513
rclavicle -1.53274e-014 -1.42876e-016
rhumerus -41.7132 -0.0727827 -80.727
rradius 55.3518
rwrist -7.45477
rhand -18.5556 -2.86716
rfingers 7.12502
rthumb 7.73411 -32.7057
lclavicle -1.53274e-014 -1.42876e-016
lhumerus -42.0592 16.2022 62.3992
lradius 43.415
lwrist 10.4091
lhand -22.3812 -13.5332
lfingers 7.12502
lthumb 4.04071 16.4082
rfemur -16.8813 -10.3601 23.5115
rtibia 91.6023
rfoot 3.73476 -20.0522
rtoes 4.68967
lfemur -35.1908 -0.051693 -17.8382
ltibia 57.7178
lfoot -14.8781 15.9632
ltoes -4.95286
262
root 1.59224 16.528 -12.2659 -0.975723 -0.371756 -7.42812
lowerback 19.3238 1.55485 1.64428
upperback 0.58309 2.75552 3.15576
thorax -10.3137 1.3132 1.75877
lowerneck -19.7432 0.14813 4.02175
upperneck 19.1638 -0.265285 -3.20635
head 9.28197 -0.192292 -1.80838
rclavicle 3.59831e-014 2.51711e-014
rhumerus -40.9336 -0.0920552 -80.8274
rradius 54.6047
rwrist -7.69418
rhand -18.6469 -2.92394
rfingers 7.12502
rthumb 7.64595 -32.7657
lclavicle 3.59831e-014 2.51711e-014
lhumerus -41.1933 16.4426 63.2019
lradius 42.4899
lwrist 10.7888
lhand -22.2427 -13.1684
lfingers 7.12502
lthumb 4.17445 16.7704
rfemur -18.2817 -10.3515 23.6932
rtibia 91.8576
rfoot 0.73793 -20.672
rtoes 3.40941
lfemur -35.0019 -0.145094 -18.1581
ltibia 58.2245
lfoot -15.5231 16.4829
ltoes -5.01472
263
root 1.60784 16.5194 -12.1383 -0.83655 -0.589473 -7.06722
lowerback 19.6257 1.57475 1.44405
upperback 0.664965 2.7381 3.10635
thorax -10.3976 1.31195 1.81789
lowerneck -19.8147 0.26985 4.1271
upperneck 19.1284 -0.0758179 -3.45006
head 9.28978 -0.124901 -1.88488
rclavicle -6.21202e-017 1.2921e-015
rhumerus -40.2103 0.124024 -80.9859
rradius 54.0722
rwrist -7.9375
rhand -18.6071 -2.87523
rfingers 7.12502
rthumb 7.68437 -32.7156
lclavicle -6.21202e-017 1.2921e-015
lhumerus -40.401 16.3399 64.1438
lradius 41.8637
lwrist 11.2414
lhand -22.2615 -12.8065
lfingers 7.12502
lthumb 4.15628 17.1327
rfemur -19.697 -10.4024 23.7296
rtibia 91.9866
rfoot -2.03907 -21.0497
rtoes 2.12428
lfemur -34.7482 -0.292793 -18.5983
ltibia 58.5445
lfoot -16.0637 16.922
ltoes -5.11267
264
root 1.62326 16.5172 -12.0144 -0.664908 -0.696736 -6.63663
lowerback 19.9244 1.55568 1.16482
upperback 0.725169 2.64905 3.04016
thorax -10.504 1.28046 1.92433
lowerneck -19.8724 0.39325 4.21916
upperneck 19.0903 0.10449 -3.62569
head 9.2946 -0.0549116 -1.93662
rclavicle -2.8948e-015 -9.0447e-015
rhumerus -39.561 0.528292 -81.1908
rradius 53.7422
rwrist -8.09988
rhand -18.4879 -2.71749
rfingers 7.12502
rthumb 7.79945 -32.5536
lclavicle -2.8948e-015 -9.0447e-015
lhumerus -39.6818 15.9111 65.1785
lradius 41.4812
lwrist 11.5507
lhand -22.3818 -12.6072
lfingers 7.12502
lthumb 4.04008 17.3343
rfemur -21.1795 -10.5174 23.6584
rtibia 92.0101
rfoot -4.51144 -21.2329
rtoes 0.839328
lfemur -34.4912 -0.480362 -19.1276
ltibia 58.7192
lfoot -16.5454 17.2564
ltoes -5.19405
265
root 1.63871 16.5194 -11.8934 -0.444662 -0.714815 -6.15973
lowerback 20.1952 1.50206 0.840928
upperback 0.772598 2.50064 2.96073
thorax -10.6073 1.22331 2.06013
lowerneck -19.943 0.522265 4.29633
upperneck 19.0058 0.281354 -3.74051
head 9.28597 0.0189819 -1.96462
rclavicle -6.03808e-015 3.8763e-015
rhumerus -38.9874 1.1132 -81.4455
rradius 53.6405
rwrist -8.24624
rhand -18.4002 -2.6004
rfingers 7.12502
rthumb 7.88409 -32.4334
lclavicle -6.03808e-015 3.8763e-015
lhumerus -39.0163 15.233 66.2712
lradius 41.3158
lwrist 11.6719
lhand -22.5405 -12.6784
lfingers 7.12502
lthumb 3.88683 17.2659
rfemur -22.7495 -10.6628 23.5137
rtibia 91.9382
rfoot -6.66529 -21.2769
rtoes -0.531118
lfemur -34.2623 -0.677242 -19.7171
ltibia 58.7883
lfoot -16.9786 17.4889
ltoes -5.30443
266
root 1.65326 16.5247 -11.774 -0.167533 -0.6491 -5.69221
lowerback 20.411 1.42006 0.528634
upperback 0.79899 2.31551 2.88393
thorax -10.7004 1.14899 2.20488
lowerneck -19.9885 0.654048 4.38846
upperneck 18.8585 0.45504 -3.84695
head 9.25128 0.0933656 -1.99155
rclavicle -2.51711e-014 -1.98785e-015
rhumerus -38.5054 1.80247 -81.7182
rradius 53.7143
rwrist -8.30027
rhand -18.4141 -2.44889
rfingers 7.12502
rthumb 7.87072 -32.2824
lclavicle -2.51711e-014 -1.98785e-015
lhumerus -38.4046 14.3686 67.3933
lradius 41.3401
lwrist 11.5861
lhand -22.7352 -12.9005
lfingers 7.12502
lthumb 3.69884 17.0472
rfemur -24.4009 -10.8191 23.3664
rtibia 91.7676
rfoot -8.51921 -21.2177
rtoes -1.71338
lfemur -34.0846 -0.837028 -20.2979
ltibia 58.7947
lfoot -17.4116 17.5816
ltoes -5.42632
267
root 1.66681 16.5328 -11.654 0.157057 -0.53567 -5.28499
lowerback 20.5458 1.32349 0.285147
upperback 0.820559 2.12579 2.8183
thorax -10.7498 1.06984 2.32594
lowerneck -19.981 0.766981 4.4828
upperneck 18.6145 0.602603 -3.95667
head 9.1727 0.155445 -2.02198
rclavicle -2.20154e-014 -9.34288e-015
rhumerus -38.107 2.52827 -81.9873
rradius 53.9379
rwrist -8.25103
rhand -18.5624 -2.27682
rfingers 7.12502
rthumb 7.72757 -32.1156
lclavicle -2.20154e-014 -9.34288e-015
lhumerus -37.8009 13.4071 68.517
lradius 41.4996
lwrist 11.2787
lhand -22.9549 -13.228
lfingers 7.12502
lthumb 3.48666 16.7232
rfemur -26.0991 -10.9371 23.2697
rtibia 91.4831
rfoot -10.0825 -21.0673
rtoes -2.75325
lfemur -33.9413 -0.902045 -20.8108
ltibia 58.7622
lfoot -17.8649 17.5264
ltoes -5.58689
268
root 1.67847 16.5435 -11.5322 0.496894 -0.413211 -4.98055
lowerback 20.6149 1.22721 0.132097
upperback 0.855506 1.95886 2.78194
thorax -10.7454 0.997702 2.42198
lowerneck -19.9837 0.872985 4.61076
upperneck 18.3147 0.739601 -4.11683
head 9.07693 0.209147 -2.07621
rclavicle -1.13556e-014 8.94531e-015
rhumerus -37.7667 3.22936 -82.2201
rradius 54.2705
rwrist -8.07452
rhand -18.7822 -2.09371
rfingers 7.12502
rthumb 7.51541 -31.9402
lclavicle -1.13556e-014 8.94531e-015
lhumerus -37.1894 12.4305 69.6197
lradius 41.7628
lwrist 10.8083
lhand -23.1315 -13.6053
lfingers 7.12502
lthumb 3.31615 16.3487
rfemur -27.7884 -10.9681 23.2655
rtibia 91.0695
rfoot -11.359 -20.8549
rtoes -3.62965
lfemur -33.8057 -0.809142 -21.2012
ltibia 58.7109
lfoot -18.3324 17.3021
ltoes -5.81709
269
root 1.68831 16.5569 -11.4076 0.79916 -0.300317 -4.75358
lowerback 20.6651 1.14359 0.0354316
upperback 0.909479 1.82378 2.77115
thorax -10.7091 0.938189 2.50483
lowerneck -19.9279 0.948058 4.72162
upperneck 17.9461 0.841111 -4.2852
head 8.94599 0.244632 -2.13404
rclavicle -2.38542e-015 3.4191e-014
rhumerus -37.4995 3.86987 -82.4003
rradius 54.6875
rwrist -7.83779
rhand -19.0203 -1.85708
rfingers 7.12502
rthumb 7.28551 -31.7117
lclavicle -2.38542e-015 3.4191e-014
lhumerus -36.5799 11.4793 70.6828
lradius 42.0982
lwrist 10.2652
lhand -23.2172 -14.0124
lfingers 7.12502
lthumb 3.23337 15.9428
rfemur -29.3853 -10.9016 23.3006
rtibia 90.512
rfoot -12.3953 -20.5924
rtoes -4.43559
lfemur -33.6045 -0.543563 -21.4947
ltibia 58.6377
lfoot -18.813 16.9213
ltoes -6.1447
270
root 1.6956 16.5718 -11.2811 1.03979 -0.212746 -4.57951
lowerback 20.7358 1.08414 -0.0485385
upperback 0.988419 1.72566 2.78309
thorax -10.658 0.895731 2.59448
lowerneck -19.8872 1.01273 4.83281
upperneck 17.5777 0.928997 -4.46459
head 8.81802 0.272706 -2.19753
rclavicle 8.89561e-015 -8.34896e-015
rhumerus -37.2697 4.41315 -82.5159
rradius 55.1386
rwrist -7.5955
rhand -19.2148 -1.58136
rfingers 7.12502
rthumb 7.09781 -31.4423
lclavicle 8.89561e-015 -8.34896e-015
lhumerus -35.9636 10.5721 71.6972
lradius 42.4814
lwrist 9.75936
lhand -23.1965 -14.4367
lfingers 7.12502
lthumb 3.2533 15.5182
rfemur -30.8642 -10.7292 23.3389
rtibia 89.8191
rfoot -13.2199 -20.2993
rtoes -5.05372
lfemur -33.3136 -0.103551 -21.7126
ltibia 58.546
lfoot -19.3097 16.3928
ltoes -6.57131
271
root 1.70005 16.588 -11.1525 1.20398 -0.14416 -4.40902
lowerback 20.8401 1.04972 -0.171274
upperback 1.09645 1.65198 2.80396
thorax -10.5951 0.86649 2.70881
lowerneck -19.8099 1.06599 4.92967
upperneck 17.2147 1.00181 -4.62306
head 8.68532 0.295733 -2.25328
rclavicle -1.1281e-014 -1.09332e-014
rhumerus -37.065 4.85098 -82.5742
rradius 55.6104
rwrist -7.44581
rhand -19.3465 -1.33081
rfingers 7.12502
rthumb 6.97063 -31.196
lclavicle -1.1281e-014 -1.09332e-014
lhumerus -35.3483 9.70684 72.661
lradius 42.9159
lwrist 9.36408
lhand -23.086 -14.7575
lfingers 7.12502
lthumb 3.36001 15.1957
rfemur -32.2054 -10.4704 23.3191
rtibia 88.9948
rfoot -13.8627 -20.0001
rtoes -5.56869
lfemur -32.9099 0.473571 -21.9066
ltibia 58.4301
lfoot -19.8091 15.7638
ltoes -7.10797
272
root 1.70137 16.6042 -11.0224 1.30196 -0.0791255 -4.23297
lowerback 20.9851 1.03331 -0.341076
upperback 1.21115 1.59142 2.82768
thorax -10.549 0.845606 2.84947
lowerneck -19.6847 1.09564 4.97954
upperneck 16.8847 1.04632 -4.7248
head 8.55414 0.309377 -2.28574
rclavicle -5.66536e-015 -1.55052e-014
rhumerus -36.9049 5.17945 -82.5902
rradius 56.0849
rwrist -7.4364
rhand -19.3969 -1.15619
rfingers 7.12502
rthumb 6.92206 -31.023
lclavicle -5.66536e-015 -1.55052e-014
lhumerus -34.7458 8.87039 73.5625
lradius 43.3639
lwrist 9.10952
lhand -22.9217 -14.9082
lfingers 7.12502
lthumb 3.51868 15.0425
rfemur -33.4196 -10.1447 23.2368
rtibia 88.0513
rfoot -14.3708 -19.7243
rtoes -5.9637
lfemur -32.4162 1.15195 -22.083
ltibia 58.2994
lfoot -20.3321 15.045
ltoes -7.67127
